<?xml version="1.0" encoding="UTF-8" standalone="no"?>
<!-- Uploaded to: SVG Repo, www.svgrepo.com, Generator: SVG Repo Mixer Tools -->

<svg
   height="800px"
   width="800px"
   version="1.1"
   id="_x32_"
   viewBox="0 0 512 512"
   xml:space="preserve"
   sodipodi:docname="bed.svg"
   inkscape:version="1.3 (0e150ed6c4, 2023-07-21)"
   xmlns:inkscape="http://www.inkscape.org/namespaces/inkscape"
   xmlns:sodipodi="http://sodipodi.sourceforge.net/DTD/sodipodi-0.dtd"
   xmlns="http://www.w3.org/2000/svg"
   xmlns:svg="http://www.w3.org/2000/svg"><defs
   id="defs1" /><sodipodi:namedview
   id="namedview1"
   pagecolor="#505050"
   bordercolor="#eeeeee"
   borderopacity="1"
   inkscape:showpageshadow="0"
   inkscape:pageopacity="0"
   inkscape:pagecheckerboard="0"
   inkscape:deskcolor="#505050"
   inkscape:zoom="0.66026096"
   inkscape:cx="274.89131"
   inkscape:cy="314.26968"
   inkscape:window-width="1920"
   inkscape:window-height="1057"
   inkscape:window-x="-8"
   inkscape:window-y="-8"
   inkscape:window-maximized="1"
   inkscape:current-layer="g1" />&#10;<style
   type="text/css"
   id="style1">&#10;	.st0{fill:#000000;}&#10;</style>&#10;<g
   id="g1">&#10;	<path
   class="st0"
   d="M 439.616,151.846 V 81.819 c 0,-25.396004 -20.576,-45.986 -45.979,-45.986 h -275.27 c -25.404004,0 -45.978,20.589998 -45.978,45.978 v 70.034 L 0,333.171 V 443.72 c 0,17.91801 14.523986,32.446 32.427,32.446 h 447.145 c 17.90401,0 32.428,-14.52799 32.428,-32.431 V 333.171 Z M 109.943,81.827 c 0,-4.648007 3.791,-8.435 8.428,-8.435 h 275.258 c 4.64,0 8.431,3.786995 8.431,8.428 v 69.997 h -22.682 v -23.742 c 0,-20.171 -16.422,-36.6 -36.597,-36.6 h -44.227 c -20.172,0 -36.593,16.429 -36.593,36.6 v 23.742 h -11.923 v -23.742 c 0,-20.171 -16.422,-36.6 -36.593,-36.6 h -44.227 c -20.176,0 -36.596,16.429 -36.596,36.6 v 23.742 h -22.679 z m 247.977,46.247 v 23.742 h -74.5 v -23.734 c 0,-8.33801 6.807,-15.142 15.138,-15.142 h 44.22 c 8.334,0 15.142,6.80398 15.142,15.134 z m -129.34,0 v 23.742 h -74.5 v -23.734 c 0,-8.33801 6.808,-15.142 15.142,-15.142 h 44.219 c 8.331,0 15.139,6.80398 15.139,15.134 z m -124.314,45.209 h 303.472 l 5.876,14.715 H 98.39 Z m -14.442,36.181 h 332.355 l 46.866,117.398 H 42.954 Z M 474.446,438.608 H 37.555 v -90.281 h 436.891 z"
   id="path1"
   sodipodi:nodetypes="cssssccssssccssssccssssccssssccssccsssssccssssccccccccccccccc"
   style="fill:#ab8a62;fill-opacity:1" />&#10;</g>&#10;</svg>
