<?xml version="1.0" encoding="UTF-8"?>
<svg version="1.1" viewBox="0 0 1600 1600" width="100" height="100" xmlns="http://www.w3.org/2000/svg">
<path transform="translate(876,550)" d="m0 0h544l14 1 7 2 4 4 2 7 1 9 1 32v68l30 2 21 3 19 5 16 7 15 10 12 11 10 11 9 14 18 35 1 2v400l-4 12-12 25-12 16-9 10-8 7-10 8-16 9-14 6-20 5-14 2-32 2 1 14v12l-1 22-3 26-4 17-5 13-10 19-2 3 5-1h143l15 3 8 5 4 8v32l-5 21-10 26-8 15-10 14-9 11-10 11-4 5-11 9-9 8-18 11-17 8-27 9-14 4h-1298l-16-5-17-6-22-10-20-12-14-11-12-11-7-7-10-14-15-25-9-19-5-12-3-6v-4h2l-2-6v-43l10-5 12-3h25l-8-15-13-18-9-13-7-11-8-7-2-1v-26l18-7 14-3 16-2 1-7 1-28 3-26 4-18 5-17v-13l-7-16-12-23-8-18-13-34-6-19-9-35-7-28v-93l11-25 10-19 10-16 10-13 12-13 14-14 11-9 14-10 13-8 22-12 17-8 24-9 28-7 32-6 25-3 24-2 12-3-1-6-2-5-20-8-9-2h-28l-5-9-1-6 1-22 3-9 3-5 2-1h10l33 4 16 5 16 6 4 2 8-14 9-13 11-12 7-7 13-9 20-12 25-10 19-6 36-6 11-1h50l30 3 25 5 30 8 18 6 16 9 7 6 5 7-1 9-7 16-10 16-10 13-9 10-7 8-10 9-11 9-16 12-15 9-18 8-27 8-7 1v2l5 1 18 10 26 16 19 14 17 14 10 9 11 12 14 20 10 19 9 24 6 21 3 20v16l-4 3-5 1-14 1h-11l-11-1-5-3-1-1-1-17-4-20-6-18-8-16-10-15-12-14-7-7-14-11-10-7-14-8-17-9-29-11-20-6-23-5-29-4-27-2-29-1h-28l-46 2-31 3-31 6-25 7-25 10-25 13-15 10-17 14-12 12-11 14-10 17-9 22-4 19-1 12v17l3 31 6 34 9 35 12 36 9 22 3 5 7-6 9-11 20-20 17-13 18-11 23-12 19-7 19-5 24-4 20-1 7-2 9-20 10-19 11-16 11-12 10-8 13-8 14-7 16-5 10-2 26-2h43l23 2 21 5 16 7 14 9 10 9 5 4 13 17 9 15 9 16 8 14 4 4 13 2h11l6-5 7-8 11-11 7-8 13-13 11-9 20-15 19-11 19-9 24-8 22-4 10-1h52l22 3 21 5 21 8 23 12 18 12 14 11 10 9 16 16 13 17 10 16 12 23 10 28 5 24 2 18 1 15 1 35v69l-1 1-7 1-20 1h-19l-3-5v-80l-2-29-3-23-5-19-6-16-8-16-9-15-11-13-17-17-17-13-15-10-17-8-19-6-22-4-12-1h-24l-23 3-23 6-16 7-18 10-15 12-22 18-10 8 16 8 11 7 10 7 13 9 11 9 11 10 8 7 12 14 7 10 8 13 11 21 9 24 5 17 3 16 3 34v30l179-1h50l21 1 14 2 7 3 3 3 2 10-5 19-8 21-21 42 296-2 11-2 14-6 11-8 3-3h2l2-4h2l2-4 6-9 4-10 3-15 1-11 1-618 1-108h-550v52l-1 247-2 1-43-1-3-3-1-8-1-87v-98l1-87 1-48 1-9 4-5 4-2 8-1zm-409 101-25 4-21 5-19 8-15 8-12 9-12 11-11 16v2l8-1 17-9 23-14 17-10 21-10 16-7 10-7 4-3zm99 28-31 7-24 7-37 14-19 8-16 8-25 12-9 7 1 2h22l17-3 40-11 21-8 26-12 17-10 9-7 8-7 5-7zm884 43-1 1v498l1 4h17l19-2 16-4 16-8 12-9v-2l3-1 7-10 5-12 3-14 1-19v-337l-1-17-3-14-4-10-7-13-9-10-8-7-10-5-17-5-22-3zm-1050 277-19 3-14 5-11 6-13 11-9 11-6 10-1 3 1 1 15 1h170l7-2-7-12-13-16-14-11-16-7-10-2-10-1zm-15 98-24 5-14 5-25 12-12 9-14 11-8 8-13 17-8 13-9 19-6 18-3 16-2 15-5 2-8 1-21-1-11-2-2-2 1-12 9-39 8-21 11-23 7-11 10-14 10-12 4-9v-3l-11 1-22 5-20 8-17 8-21 14-14 12-15 15-11 15-10 18-8 18-8 26-3 18v32l1 9 2 1h638l7-2 1-1v-23l-2-27-4-17-9-25-11-21-8-12-8-10-11-12-7-7-11-9-17-11-23-11-23-7-5-1h-15l-10 4-15 10-11 9-18 18-10 14-10 16-8 15-6 15-6 18-2 9-1 11-2 5-2 1h-17l-21-2-6-3v-9l11-44 6-17 10-22 14-21 9-12 9-11 4-7v-3l-12 2-21 5-13 5-21 11-12 9-13 11-12 12-10 13-9 15-7 15-7 23-2 11-1 14-4 4h-27l-11-1-6-3v-8l10-43 4-13 10-23 7-12 9-12 8-10 11-13 6-10-1-2zm169 251-479 1 2 5 9 11 8 11 9 14 7 9 6 1 609 1h165l89-1 7-2 5-8 18-39-1-3zm-200 100-286 1-18 1 1 6 10 23 10 16 13 15 14 13 10 7 16 8 13 5 16 4 29 2 63 1 260-1h130l668 1h78l34-1 32-2 15-3 12-4 15-8 12-9 11-10 11-14 10-14 11-21 5-13v-2l-359-1z" fill="#A3845C"/>
<path transform="translate(1231,24)" d="m0 0 39 3 6 2 1 5-12 34-7 16-9 15-7 11-6 10-7 16-5 18v8l4 15 6 14 13 21 12 21 10 21 5 18 1 6v22l-2 13-5 16-7 16-10 19-14 22-8 16-8 17-6 5h-18l-16-3-7-4v-10l7-20 8-19 12-21 7-10 8-16 6-19 1-14-2-13-8-20-8-14-11-18-11-21-5-15-3-12-1-10v-17l3-18 6-18 7-14 10-16 9-14 6-10 6-16 4-13z" fill="#A3845C"/>
<path transform="translate(1084,24)" d="m0 0h13l25 3 3 3-1 10-8 27-5 12-9 15-11 18-6 10-7 15-4 17v10l4 14 10 21 12 19 11 19 7 17 4 14 2 13v22l-3 16-6 18-10 19-13 22-11 19-8 17-6 8-7 3h-13l-13-2-5-2-3-3-1-3v-12l7-21 8-16 9-15 10-16 9-17 4-13 1-5v-18l-4-15-8-16-7-11-12-20-8-16-6-16-3-12-1-8v-17l2-17 6-20 10-20 10-16 4-5 11-18 4-10 3-12 4-6z" fill="#A3845C"/>
<path transform="translate(747,1023)" d="m0 0h23l3 3 1 4v27l-1 13-3 3-4 1-25 1-13-2-4-5-3-21v-11l4-9 5-2z" fill="#A3845C"/>
<path transform="translate(830,1023)" d="m0 0h19l18 4 6 4 3 5 1 9-1 15-3 10-3 3-10 2h-14l-14-1-6-3-2-3v-31l1-10 2-3z" fill="#A3845C"/>
<path transform="translate(1306,650)" d="m0 0h21l16 1 5 3 2 5-1 36-4 4h-37l-6-3-2-3-1-5v-32l2-5z" fill="#A3845C"/>
<path transform="translate(1300,751)" d="m0 0h45l4 2 1 3v30l-1 9-5 2h-36l-7-2-2-3v-40z" fill="#A3845C"/>
</svg>
