<?xml version="1.0" encoding="UTF-8" standalone="no"?>
<!-- Uploaded to: SVG Repo, www.svgrepo.com, Generator: SVG Repo Mixer Tools -->

<svg
   width="945.81598"
   height="878.47559"
   viewBox="0 0 118.227 109.80945"
   aria-hidden="true"
   role="img"
   class="iconify iconify--gis"
   preserveAspectRatio="xMidYMid"
   version="1.1"
   id="svg1"
   sodipodi:docname="earth.svg"
   inkscape:version="1.3 (0e150ed6c4, 2023-07-21)"
   xmlns:inkscape="http://www.inkscape.org/namespaces/inkscape"
   xmlns:sodipodi="http://sodipodi.sourceforge.net/DTD/sodipodi-0.dtd"
   xmlns="http://www.w3.org/2000/svg"
   xmlns:svg="http://www.w3.org/2000/svg">
  <defs
     id="defs1" />
  <sodipodi:namedview
     id="namedview1"
     pagecolor="#505050"
     bordercolor="#eeeeee"
     borderopacity="1"
     inkscape:showpageshadow="0"
     inkscape:pageopacity="0"
     inkscape:pagecheckerboard="0"
     inkscape:deskcolor="#505050"
     inkscape:zoom="0.466875"
     inkscape:cx="360.91031"
     inkscape:cy="590.09371"
     inkscape:window-width="1920"
     inkscape:window-height="1057"
     inkscape:window-x="-8"
     inkscape:window-y="-8"
     inkscape:window-maximized="1"
     inkscape:current-layer="svg1" />
  <path
     d="M 84.773663,18.691066 C 76.653702,11.991678 66.245795,7.9724354 54.911238,7.9724354 c -25.891592,0 -46.9492869,21.0370356 -46.9492869,46.9492856 0,25.91225 21.0605119,46.949289 46.9492869,46.949289 25.888775,0 46.937552,-20.958534 46.942712,-46.942247 0.002,-11.50841 -4.127008,-22.033803 -10.978087,-30.18937"
     fill="#000000"
     id="path3"
     sodipodi:nodetypes="cszzsc"
     style="fill:none;fill-opacity:1;stroke:#000000;stroke-width:1.875;stroke-linecap:round;stroke-linejoin:round;stroke-dasharray:none;stroke-opacity:1" />
  <path
     id="path2"
     style="fill:none;fill-opacity:1;stroke:#000000;stroke-width:1.25;stroke-linecap:round;stroke-linejoin:round;stroke-dasharray:none;stroke-opacity:1;paint-order:stroke fill markers"
     d="m 10.464429,39.630705 c 0.487,-0.539999 1.048063,-0.810933 1.664063,-0.606933 2.443997,-0.556 1.631984,3.284065 1.833984,5.664062 1.842999,0.789999 0.980063,-6.975029 4.810059,-7.155029 2.606997,-2.934997 5.630831,-5.43408 8.798828,-7.455078 1.236999,0.881999 3.897156,0.774892 5.983154,-1.183106 -2.324997,-0.466999 -2.491006,-2.240012 0.614991,-2.937011 4.941995,-2.124998 -2.230065,2.327215 1.804931,2.970215 4.378996,1.289998 0.665946,-3.809225 2.741944,-5.803223 -2.173998,-1.479999 1.315179,-7.233976 -2.486817,-4.677979 1.314999,-0.939999 -0.731151,-2.703846 0.443848,-3.391845 0.484999,1.358998 2.930096,3.228038 3.798096,0.09204 2.443997,0.416999 2.100923,-3.122125 3.419921,-5.026123 6.195994,-2.1829978 1.066961,3.822981 0.834961,6.802978 1.992998,5.809994 5.35615,-2.239941 8.900147,-2.439941 4.306996,0.147 3.814803,-3.971051 3.747803,-6.1750487 C 56.453343,8.1296835 55.523382,8.015777 54.591383,7.929777 m 6.775159,0.4803399 c -0.092,0.1189999 0.15287,0.3880572 1.015869,0.8830567 L 63.40536,9.6410739 C 64.688359,9.4820751 64.136416,9.0432465 63.288417,8.7172468 m 9.037096,2.5465152 c -0.807999,0.182 -2.038151,0.281887 -3.25415,0.233887 0.03,2.410998 1.100023,8.853081 4.77002,7.684082 -0.652,0.143 2.072061,2.839016 0.664062,3.291015 -0.748999,5.037995 -4.834961,-3.361953 -6.907959,-3.251953 -3.099997,0.523 0.58797,2.055909 -0.530029,2.805908 -2.932997,2.518998 2.537947,5.162951 2.095947,0.928956 0.359,3.412996 1.515962,3.308126 4.282959,3.130126 -6.320994,1.067999 3.518972,3.516991 0.323975,5.562989 -3.166997,-0.292 -4.941854,0.889993 -3.151856,3.98999 -0.840999,2.870997 1.996948,2.996038 2.970948,3.988037 l 1.062011,-0.09717 0.687989,-0.08984 c -0.027,-0.004 -0.05603,0.002 -0.08203,-0.002 3.946996,-1.214999 1.906042,-9.114144 6.113037,-8.598144 -0.414966,1.43896 0.442766,2.817427 1.195313,3.439941 0.06789,-0.564336 0.146835,-1.165919 0.235351,-1.799805 -0.02202,-0.03824 -0.03442,-0.0668 -0.05762,-0.106201 -0.319074,-0.403239 -0.330001,-0.603549 -0.165283,-0.66455 l -1.72876,-1.680909 c -0.841173,-0.896774 -0.952365,-1.73782 -0.279785,-2.4104 0.56138,-0.616979 1.233935,-0.56156 1.849121,0.05542 l 0.952393,1.009765 0.672607,-4.821044 -1.289551,-1.344971 c -1.345159,-1.345116 -1.624971,-2.29759 -0.952391,-2.97017 0.616979,-0.61698 1.233978,-0.561336 1.962158,0.113037 l 0.0071,-0.002 0.841309,0.841309 0.158691,-1.846192 M 38.289381,12.889739 c 0.791999,-0.097 -0.457971,1.623959 -2.167969,1.907959 -2.279998,1.900998 -0.336989,-0.667938 0.63501,-1.085938 0.776999,-0.555999 1.268959,-0.790021 1.532959,-0.822021 z m 34.96997,1.258057 c 0.069,-0.006 0.177088,0.01287 0.340088,0.06787 0.734,1.215998 -0.815087,-0.03087 -0.340088,-0.06787 z m -40.252929,0.572021 c 1.752998,0.127 -0.114991,4.217922 -2.062989,4.419922 -1.043999,-0.097 -1.756965,1.549891 -2.563964,2.08789 -0.079,0.36 0.06402,-5.63592 2.791015,-5.86792 0.833999,-0.488999 1.430938,-0.669892 1.835938,-0.639892 z m 25.238037,0.108887 c -0.893999,0.037 -1.558115,0.414963 -1.193115,1.386962 0.521999,0.503 1.283074,0.625151 1.976074,0.629151 4.269996,-0.53 1.184039,-2.098137 -0.782959,-2.015137 z m 15.125,0.781005 v 9.77e-4 c 0.189,0.017 0.633032,0.185074 1.457031,0.601074 1.663998,2.098998 -2.27703,-0.676051 -1.457031,-0.602051 z m -8.222901,1.541992 c -0.054,0.023 -0.09899,0.124971 -0.11499,0.344971 0.782999,0.878999 0.35099,-0.44897 0.11499,-0.344971 z m 3.023926,0.726075 c -0.064,-0.017 -0.07014,0.122059 0.05786,0.560058 0.841999,0.957999 0.132138,-0.508058 -0.05786,-0.560058 z m 8.560059,0.01001 c 0.687999,-0.003 2.613876,1.194002 2.223877,2.5 -1.857998,1.501999 -0.996864,0.698911 -1.359864,-0.965087 -1.243998,-1.100999 -1.276013,-1.532913 -0.864013,-1.534913 z m -54.198975,6.073975 c 0.136,0.016 0.329948,0.179079 0.595947,0.580078 -0.663999,2.037998 -1.183946,-0.649078 -0.595947,-0.580078 z m 68.34961,0.746582 c -0.194453,0.437089 -0.395293,0.897638 -0.617188,1.43457 1.134041,-0.156703 3.381844,1.833007 0.716553,2.24292 -0.268464,1.071105 -0.924343,0.554389 -1.487305,-0.306884 -0.155019,0.396453 -0.292537,0.729806 -0.458008,1.163574 -0.537379,1.427081 -0.988089,2.654732 -1.396972,3.793945 0.189289,-0.150487 0.470298,-0.09649 0.910156,0.313233 1.563998,2.724997 3.397975,0.69697 3.823975,0.59497 1.035998,-0.288999 2.59901,0.165936 3.010009,0.408936 3.964996,3.785996 -3.755896,2.216087 -3.868896,5.111084 0.418999,1.852998 -4.240013,-0.495001 -4.937012,-1 -0.124894,-0.336493 -0.260058,-0.629292 -0.403564,-0.887207 -0.06643,0.267699 -0.12224,0.516897 -0.165284,0.745849 -0.392786,1.793547 -0.672598,2.803394 -0.952392,3.027588 -0.224194,0.279794 -0.672506,0.337114 -1.233887,0.224121 -0.561379,-0.0556 -0.9523,-0.279692 -1.233887,-0.561279 -0.384289,-0.38429 -0.470624,-1.95181 -0.240478,-4.628418 -1.930142,0.737398 -4.081449,2.482549 -5.890625,2.950439 -0.117,0.091 -2.929034,2.284929 -3.259033,2.575928 -0.803,4.824995 -4.679875,7.757921 -6.119873,12.638916 -0.289,2.820997 0.645905,6.721163 0.253906,9.76416 0.911999,3.901997 4.604025,6.135901 7.822021,8.045899 2.422998,1.559998 4.946981,-1.427914 7.552979,-1.461914 2.279998,-3.352997 5.931189,-0.895067 7.992187,-1.143067 -2.375997,3.740997 1.765993,6.63103 0.593995,10.676026 -1.837999,2.247998 -2.354136,5.234971 -3.338135,7.917969 M 31.81648,25.143645 c 0.123,0.001 0.326047,0.100127 0.623047,0.380127 -0.648999,0.489999 -0.993046,-0.385127 -0.623047,-0.380127 z m -9.213134,1.299072 c 0.065,-0.015 0.133125,0.02404 0.203125,0.144043 -0.933,2.745997 -0.658125,-0.04304 -0.203125,-0.144043 z m -1.149903,2.844971 c 0.114,0.023 0.203028,0.139912 0.228028,0.409912 -1.686999,1.172999 -0.722027,-0.509912 -0.228028,-0.409912 z m 68.37793,2.234131 c 0.086,-0.037 0.334192,0.101985 0.846191,0.583984 0.091,1.221999 -1.106191,-0.473984 -0.846191,-0.583984 z M 79.55818,33.835783 c -0.208004,0.03217 -0.525837,0.394315 -0.959717,1.352051 1.209308,1.411194 1.580473,-1.445626 0.959961,-1.352051 z m 7.71875,0.220215 c -0.292672,0.840086 -0.54339,1.599892 -0.744874,2.265869 0.615953,0.08943 0.607242,-1.245887 0.744874,-2.265869 z m 5.016601,0.787842 c -0.225,0.029 -0.462117,0.282768 -0.620117,0.936768 1.880998,0.896999 1.298093,-1.024768 0.621094,-0.936768 z m -36.538086,2.778809 c -0.244,-0.021 -0.584047,0.08107 -0.998047,0.424072 1.593999,0.823999 1.72907,-0.359096 0.997071,-0.423096 z m 2.205078,0.751953 c -0.099,-0.037 -0.29801,0.03219 -0.63501,0.315185 0.347,0.868 0.93301,-0.203185 0.63501,-0.315185 z m 7.938965,5.078125 c -0.096,0.023 -0.222033,0.131047 -0.384033,0.373047 0.614999,1.016999 0.800009,-0.473047 0.38501,-0.373047 z m -50.166016,0.427978 c -0.092,10e-4 -0.14604,0.228907 -0.09204,0.878907 0.975999,1.160998 0.366041,-0.881907 0.09204,-0.878907 z m -0.542968,1.649903 c -0.091,-0.015 -0.228157,0.256233 -0.410157,1.063232 0.55,1.600999 0.685156,-1.016232 0.410157,-1.063232 z m 21.527832,52.743164 c 1.060999,-0.964999 1.680155,-2.402942 3.108154,-2.814942 6.479994,1.566999 3.658063,-6.452115 8.060059,-8.266113 2.947997,-5.403995 -6.464222,-6.263959 -9.824219,-8.230957 -5.682994,-0.859999 -5.14982,-7.775021 -10.309815,-9.270019 -4.224995,-0.674 -2.692042,-6.763988 -5.790039,-6.437989 -2.673997,0.497 -3.735099,-3.182921 -5.225097,-2.919922 -0.36,0.38 -1.865842,-2.470075 -3.485841,0.669922 -4.5749949,-1.012999 -1.37413,-6.266034 -3.3071284,-9.207031 -0.5999994,-1.009999 0.9849214,-5.147938 0.4199214,-5.460938 l -9.76e-4,9.77e-4 c -0.188,-0.105 -0.6149189,0.215972 -1.4409181,1.219971 -0.1299998,-0.23 -0.2179727,-0.542913 -0.2719726,-0.909912 m -0.6311035,5.20581 c 0.6669993,2.884997 1.0960324,6.235022 2.3320312,8.77002 0.817999,3.107997 1.421,-0.804978 1.625,1.645019 0.693999,4.625996 -2.1260258,9.39213 1.344971,13.828125 1.649998,4.472996 5.273061,7.606957 7.810059,11.501953 M 12.397535,46.374602 c -1.940999,-0.201 1.630972,3.228038 1.771972,4.738037 3.594997,0.969999 -0.503132,2.06797 2.536866,3.292969 4.576995,1.647998 1.748127,-2.032862 -0.192871,-2.807862 0.760999,-1.222998 -1.931168,-2.124928 -2.920167,-4.898925 -0.528999,-0.193 -0.917801,-0.294998 -1.1958,-0.322998 z m 56.702881,0.766113 c 1.71e-4,0 3.17e-4,2.44e-4 4.88e-4,2.44e-4 1.62e-4,0 3.26e-4,-2.44e-4 4.88e-4,-2.44e-4 z m 4.88e-4,2.44e-4 c -0.206869,5.93e-4 -0.433616,0.379584 -0.529541,1.512696 1.341493,0.322877 0.984296,-1.511312 0.529541,-1.512696 z m -52.925537,0.815674 c -0.0259,-0.008 -0.05392,-0.0044 -0.0769,0.01001 -0.104,0.067 -0.110068,0.393004 0.179931,1.104004 l 0.227051,0.150146 c 0.187,-0.663999 -0.131078,-1.21316 -0.330078,-1.26416 z m 49.506104,0.08398 c -0.588,0.034 -0.967072,0.301095 -0.549073,0.996094 l 0.175049,0.08203 h 0.999024 c 2.966997,-0.098 0.666998,-1.152124 -0.625,-1.078124 z m -52.29004,3.64502 c -0.263,-0.056 -0.299921,0.249013 0.330078,1.312012 1.923999,0.667999 0.249921,-1.191012 -0.330078,-1.312012 z m 6.595948,2.818115 c -0.24,0.03 -0.453963,0.286022 -0.511963,0.947022 2.203998,0.900999 1.232962,-1.037022 0.511963,-0.947022 z m 3.51001,3.64502 c -0.097,-0.039 -0.197917,0.398868 -0.263917,1.713867 l 0.03906,0.725098 c 0.780999,2.083998 0.516853,-2.324965 0.224854,-2.438965 z m 35.076171,2.935058 c -0.248999,-0.026 -0.252058,0.166976 0.439942,0.823975 1.846998,0.366 0.108058,-0.763975 -0.439942,-0.823975 z m 2.685791,0.614995 v 9.76e-4 c -0.114999,0.001 -0.264881,0.0838 -0.45288,0.299805 0.765999,1.203999 0.94988,-0.308781 0.45288,-0.300781 z m -0.4458,1.316894 c -0.176,0.028 -0.423081,0.14495 -0.75708,0.397949 0.918999,0.991999 1.520079,-0.521949 0.75708,-0.397949 z m -1.290039,0.193115 c -0.094,-0.01 -0.236176,0.127923 -0.430176,0.544922 0.549999,0.845999 0.710175,-0.514922 0.430176,-0.544922 z m 29.21997,9.312989 c -0.094,-0.01 -0.235932,0.126922 -0.429931,0.544922 0.549999,0.844999 0.710931,-0.514922 0.429931,-0.544922 z"
     sodipodi:nodetypes="ccccccccccccccccccccccccccccccccccccccccccccccscccccccccccccccccccccccccccccccccccccccccccccccccccccsccccccccccccccccccccccccccccccccccccccccccccscscccccccccccccccccccccccccccccsccccccccccccccccccccccccccccccccccccccccc" />
  <path
     d="M 73.869033,4.6900895 C 67.972184,2.4636546 61.582311,1.2460214 54.911709,1.2460214 c -29.601075,0 -53.6757012,24.0510076 -53.6757012,53.6756996 0,29.624693 24.0778472,53.675699 53.6757012,53.675699 29.597854,0 53.662281,-23.961254 53.668181,-53.667648 7.6e-4,-3.843943 -0.40165,-7.59196 -1.16703,-11.204514"
     fill="#000000"
     id="path4"
     sodipodi:nodetypes="cszzsc"
     style="fill:none;fill-opacity:1;stroke:#000000;stroke-width:2.5;stroke-linecap:round;stroke-linejoin:round;stroke-dasharray:2.5, 7.5;stroke-dashoffset:0;stroke-opacity:1" />
  <path
     d="m 83.77113,19.657908 0.841174,0.841174 0.616981,-7.174194 -4.315278,-4.3152782 C 80.241426,8.3370288 79.231658,7.1030678 78.11069,5.3095187 76.989722,3.5159698 76.652535,2.3394018 77.100922,1.8910148 c 1.233962,-1.23396102 3.642698,0 7.287189,3.7000909 l 4.259678,4.2596791 7.174195,-0.616981 -0.785574,-0.841175 c -0.728181,-0.67258 -0.728181,-1.400761 -0.168594,-1.962142 0.672581,-0.6725811 1.624955,-0.392787 2.970117,0.952374 l 1.400761,1.345162 4.821056,-0.672581 -1.00977,-0.952374 c -0.67258,-0.616981 -0.67258,-1.2895621 -0.11299,-1.9065421 0.67258,-0.672581 1.51376,-0.561381 2.41053,0.337187 l 2.01774,2.0177421 c 5.38065,-0.785574 8.40816,-0.896774 9.02334,-0.279794 0.2242,0.279794 0.44839,0.672581 0.56138,1.233962 0.0556,0.503987 0,0.952374 -0.22419,1.233962 -0.27979,0.224193 -1.28956,0.5613802 -3.02751,0.8967742 -1.79355,0.392787 -4.82106,1.345161 -9.08073,3.02751 -4.31528,1.624954 -6.725811,2.803316 -7.342791,3.362903 -0.224194,0.224194 -0.224194,0.561381 0,0.952374 0.168593,0.392788 1.345161,1.793549 3.531501,4.035485 2.24193,2.241936 4.03548,4.315278 5.43624,6.277421 0.33719,0.0556 1.45816,-0.112994 3.30731,-0.392788 1.84914,-0.279793 3.0831,-0.392787 3.53149,-0.337187 0.44839,0.112994 1.06537,0.561381 1.79355,1.289562 0.39279,0.392787 0.61698,0.672581 0.67258,0.952374 -0.72818,0.728181 -3.08311,1.849149 -6.95,3.362904 -1.84915,4.204078 -3.02751,6.501614 -3.4759,6.950001 -0.22419,0 -0.56138,-0.224193 -0.95237,-0.61698 -0.72818,-0.728181 -1.17657,-1.345162 -1.23396,-1.849149 -0.113,-0.448387 0.0556,-1.624955 0.39279,-3.475898 0.27979,-1.849148 0.39278,-2.970116 0.39278,-3.362903 -2.01774,-1.345162 -4.987856,-3.866891 -8.912141,-7.791176 -1.233961,-1.120968 -2.017742,-1.458155 -2.410529,-1.065368 -0.616981,0.561381 -1.737949,3.02751 -3.362904,7.287188 -1.624955,4.315279 -2.690323,7.287189 -3.027511,9.080738 -0.392787,1.793548 -0.67258,2.803316 -0.952374,3.02751 -0.224194,0.279794 -0.672581,0.337187 -1.233962,0.224194 -0.56138,-0.0556 -0.952374,-0.279794 -1.233961,-0.561381 -0.561381,-0.561381 -0.503987,-3.587098 0.279794,-9.023344 l -2.017743,-1.962142 c -0.841174,-0.896775 -0.952374,-1.737949 -0.279793,-2.41053 0.56138,-0.61698 1.233961,-0.56138 1.849148,0.0556 l 0.952375,1.009768 0.672581,-4.821059 -1.289562,-1.345161 c -1.345162,-1.345162 -1.624955,-2.297536 -0.952374,-2.970117 0.61698,-0.616981 1.233961,-0.561381 1.962142,0.112993 z"
     id="path1"
     style="fill:none;fill-opacity:1;stroke:#000000;stroke-width:2.5;stroke-linecap:round;stroke-linejoin:round;stroke-dasharray:none;stroke-opacity:1" />
</svg>
