<?xml version="1.0" encoding="UTF-8" standalone="no"?>
<!-- Uploaded to: SVG Repo, www.svgrepo.com, Generator: SVG Repo Mixer Tools -->

<svg
   fill="#000000"
   width="800px"
   height="800px"
   viewBox="0 0 32 32"
   version="1.1"
   id="svg1"
   sodipodi:docname="parking.svg"
   inkscape:version="1.3 (0e150ed6c4, 2023-07-21)"
   xmlns:inkscape="http://www.inkscape.org/namespaces/inkscape"
   xmlns:sodipodi="http://sodipodi.sourceforge.net/DTD/sodipodi-0.dtd"
   xmlns="http://www.w3.org/2000/svg"
   xmlns:svg="http://www.w3.org/2000/svg"
   xmlns:rdf="http://www.w3.org/1999/02/22-rdf-syntax-ns#"
   xmlns:cc="http://creativecommons.org/ns#"
   xmlns:dc="http://purl.org/dc/elements/1.1/">
  <defs
     id="defs1" />
  <sodipodi:namedview
     id="namedview1"
     pagecolor="#505050"
     bordercolor="#eeeeee"
     borderopacity="1"
     inkscape:showpageshadow="0"
     inkscape:pageopacity="0"
     inkscape:pagecheckerboard="0"
     inkscape:deskcolor="#505050"
     inkscape:zoom="0.93375"
     inkscape:cx="351.80723"
     inkscape:cy="458.90228"
     inkscape:window-width="1920"
     inkscape:window-height="1057"
     inkscape:window-x="-8"
     inkscape:window-y="-8"
     inkscape:window-maximized="1"
     inkscape:current-layer="svg1" />
  <title
     id="title1">car</title>
  <path
     d="M 27,22 H 4 C 2.896,22 2,21.104 2,20 V 15 C 2,13.896 2.896,13 4,13 H 5 L 6.916,7 C 7.3912693,5.5116828 7.812,5 8.917,5 h 13.166 c 1.104,0 1.458543,0.3052988 2,2 L 26,13 h 1 c 1.104,0 2,0.896 2,2 v 5 c 0,1.104 -0.896,2 -2,2 z M 9,20 H 22 V 19 H 9 Z m 13,-7 c 0,-1.104 -0.896,-2.125 -2,-2.125 -1.104,0 -2,1.021 -2,2.125 z M 9,18 H 22 V 17 H 9 Z M 9,16 H 22 V 15 H 9 Z m -4.938,1 c 0,1.104 0.896,2 2,2 1.104,0 2,-0.896 2,-2 0,-1.104 -0.896,-2 -2,-2 -1.104,0 -2,0.896 -2,2 z M 23.083,7 c -0.222784,-0.6972886 -0.447,-1 -1,-1 H 16 v 1 h 0.5 C 16.776,7 17,7.224 17,7.5 17,7.776 16.776,8 16.5,8 h -2 C 14.224,8 14,7.776 14,7.5 14,7.224 14.224,7 14.5,7 H 15 V 6 H 8.917 c -0.553,0 -0.7231265,0.1334164 -1,1 L 6,13 h 11.46 c 0.023,-1.364 1.13,-2.643 2.495,-2.643 1.365,0 2.472,1.278 2.496,2.643 H 25 Z m 1.855,8.062 c -1.104,0 -2,0.896 -2,2 0,1.104 0.896,2 2,2 1.104,0 2,-0.896 2,-2 0,-1.104 -0.896,-2 -2,-2 z M 7,25.5 C 7,26.328 6.328,27 5.5,27 4.672,27 4,26.328 4,25.5 V 23 h 3 z m 20,0 C 27,26.328 26.328,27 25.5,27 24.672,27 24,26.328 24,25.5 V 23 h 3 z"
     id="path1"
     sodipodi:nodetypes="ssssscsssscssssccccccsccccccccccccsssssssccssssssccssccsccsssssssssccssssccs"
     style="fill:#ab8a62;fill-opacity:1;stroke:none;stroke-width:0.08;stroke-dasharray:none;stroke-opacity:1" />
  <metadata
     id="metadata1">
    <rdf:RDF>
      <cc:Work
         rdf:about="">
        <dc:title>car</dc:title>
      </cc:Work>
    </rdf:RDF>
  </metadata>
</svg>
