<?xml version="1.0" encoding="UTF-8" standalone="no"?>
<!-- Uploaded to: SVG Repo, www.svgrepo.com, Generator: SVG Repo Mixer Tools -->

<svg
   width="800px"
   height="800px"
   viewBox="0 0 24 24"
   version="1.1"
   xml:space="preserve"
   id="svg3"
   sodipodi:docname="pool.svg"
   inkscape:version="1.3 (0e150ed6c4, 2023-07-21)"
   xmlns:inkscape="http://www.inkscape.org/namespaces/inkscape"
   xmlns:sodipodi="http://sodipodi.sourceforge.net/DTD/sodipodi-0.dtd"
   xmlns="http://www.w3.org/2000/svg"
   xmlns:svg="http://www.w3.org/2000/svg"><defs
   id="defs3">&#10;&#10;&#10;&#10;&#10;&#10;&#10;&#10;</defs><sodipodi:namedview
   id="namedview3"
   pagecolor="#505050"
   bordercolor="#eeeeee"
   borderopacity="1"
   inkscape:showpageshadow="0"
   inkscape:pageopacity="0"
   inkscape:pagecheckerboard="0"
   inkscape:deskcolor="#505050"
   inkscape:zoom="0.93375"
   inkscape:cx="400"
   inkscape:cy="400"
   inkscape:window-width="1920"
   inkscape:window-height="1057"
   inkscape:window-x="-8"
   inkscape:window-y="-8"
   inkscape:window-maximized="1"
   inkscape:current-layer="svg3" />&#10;&#10;<style
   type="text/css"
   id="style1">&#10;	.st0{opacity:0.2;fill:none;stroke:#000000;stroke-width:5.000000e-02;stroke-miterlimit:10;}&#10;</style>&#10;&#10;<g
   id="Layer_Grid" />&#10;&#10;<path
   d="m 19,17.4 c -0.4,0 -0.58695,-0.121115 -0.9,-0.3 -0.38829,-0.22188 -0.9,-0.6 -1.9,-0.6 -1,0 -1.493133,0.309381 -1.9,0.6 -0.293396,0.209568 -0.5,0.3 -0.9,0.3 -0.4,0 -0.58695,-0.121115 -0.9,-0.3 -0.38829,-0.22188 -0.9,-0.6 -1.9,-0.6 -1,0 -1.4931333,0.309381 -1.9,0.6 C 8.4066042,17.309568 8.2,17.4 7.8,17.4 7.4,17.4 7.2130495,17.278885 6.9,17.1 6.5117099,16.87812 6,16.6 5,16.6 c -0.6,0 -1,0.4 -1,1 0,0.6 0.4,1 1,1 0.4,0 0.5869505,0.121115 0.9,0.3 0.3882901,0.22188 0.9,0.6 1.9,0.6 1,0 1.4931333,-0.309381 1.9,-0.6 0.2933958,-0.209568 0.5,-0.3 0.9,-0.3 0.4,0 0.58695,0.121115 0.9,0.3 0.38829,0.22188 0.9,0.6 1.9,0.6 1,0 1.493133,-0.309381 1.9,-0.6 0.293396,-0.209568 0.5,-0.3 0.9,-0.3 0.4,0 0.58695,0.121115 0.9,0.3 0.38829,0.22188 0.9,0.6 1.9,0.6 0.6,0 1,-0.4 1,-1 0,-0.6 -0.4,-1.1 -1,-1.1 z"
   id="path1"
   sodipodi:nodetypes="sssssssssssssssssssssssss"
   style="fill:#ab8a62;fill-opacity:1" /><path
   d="m 19,20.4 c -0.4,0 -0.58695,-0.121115 -0.9,-0.3 -0.38829,-0.22188 -0.9,-0.6 -1.9,-0.6 -1,0 -1.493133,0.309381 -1.9,0.6 -0.293396,0.209568 -0.5,0.3 -0.9,0.3 -0.4,0 -0.58695,-0.121115 -0.9,-0.3 -0.38829,-0.22188 -0.9,-0.6 -1.9,-0.6 -1,0 -1.4931333,0.309381 -1.9,0.6 C 8.4066042,20.309568 8.2,20.4 7.8,20.4 7.4,20.4 7.2130495,20.278885 6.9,20.1 6.5117099,19.87812 6,19.6 5,19.6 c -0.6,0 -1,0.4 -1,1 0,0.6 0.4,1 1,1 0.4,0 0.5869505,0.121115 0.9,0.3 0.3882901,0.22188 0.9,0.6 1.9,0.6 1,0 1.4931333,-0.309381 1.9,-0.6 0.2933958,-0.209568 0.5,-0.3 0.9,-0.3 0.4,0 0.58695,0.121115 0.9,0.3 0.38829,0.22188 0.9,0.6 1.9,0.6 1,0 1.493133,-0.309381 1.9,-0.6 0.293396,-0.209568 0.5,-0.3 0.9,-0.3 0.4,0 0.58695,0.121115 0.9,0.3 0.38829,0.22188 0.9,0.6 1.9,0.6 0.6,0 1,-0.4 1,-1 0,-0.6 -0.4,-1.1 -1,-1.1 z"
   id="path2"
   sodipodi:nodetypes="sssssssssssssssssssssssss"
   style="fill:#ab8a62;fill-opacity:1" /><path
   d="M 17,2 C 15.3,2 14,3.3 14,5 V 8 H 9 V 5 c 0,-0.6 0.4,-1 1,-1 0.6,0 1,0.4 1,1 v 1 c 0,0.6 0.4,1 1,1 0.6,0 1,-0.4 1,-1 V 5 C 13,3.3 11.7,2 10,2 8.3,2 7,3.3 7,5 v 10 c 0,0.6 0.4,1 1,1 0.6,0 1,-0.4 1,-1 v -1 h 5 v 1 c 0,0.6 0.4,1 1,1 0.6,0 1,-0.4 1,-1 V 5 c 0,-0.6 0.4,-1 1,-1 0.6,0 1,0.4 1,1 v 1 c 0,0.6 0.4,1 1,1 0.6,0 1,-0.4 1,-1 V 5 C 20,3.3 18.7,2 17,2 Z M 14,12 H 9 v -2 h 5 z"
   id="path3"
   style="fill:#ab8a62;fill-opacity:1" />&#10;&#10;</svg>
