<?xml version="1.0" encoding="UTF-8" standalone="no"?>
<!-- Uploaded to: SVG Repo, www.svgrepo.com, Generator: SVG Repo Mixer Tools -->

<svg
   width="800px"
   height="800px"
   viewBox="0 0 24 24"
   fill="none"
   version="1.1"
   id="svg1"
   sodipodi:docname="wifi.svg"
   inkscape:version="1.3 (0e150ed6c4, 2023-07-21)"
   xmlns:inkscape="http://www.inkscape.org/namespaces/inkscape"
   xmlns:sodipodi="http://sodipodi.sourceforge.net/DTD/sodipodi-0.dtd"
   xmlns="http://www.w3.org/2000/svg"
   xmlns:svg="http://www.w3.org/2000/svg">
  <defs
     id="defs1" />
  <sodipodi:namedview
     id="namedview1"
     pagecolor="#505050"
     bordercolor="#eeeeee"
     borderopacity="1"
     inkscape:showpageshadow="0"
     inkscape:pageopacity="0"
     inkscape:pagecheckerboard="0"
     inkscape:deskcolor="#505050"
     inkscape:zoom="0.93375"
     inkscape:cx="400"
     inkscape:cy="400"
     inkscape:window-width="1920"
     inkscape:window-height="1057"
     inkscape:window-x="-8"
     inkscape:window-y="-8"
     inkscape:window-maximized="1"
     inkscape:current-layer="svg1" />
  <path
     id="Vector"
     d="m 8.34277,14.5899 c 0.46584,-0.4996 1.0290841,-0.898436 1.65503,-1.1719 0.625884,-0.273436 1.3017,-0.4155 1.9848,-0.4179 0.683,-0.0024 1.3593,0.1352 1.9871,0.4043 0.6278,0.2691 1.194,0.6639 1.6633,1.1602 M 6.14941,11.5439 C 6.89476,10.7446 7.7959627,10.106583 8.79745,9.66902 9.7989227,9.2314632 10.8793,9.0038848 11.9721,9.00007 c 1.0929,-0.00382 2.174505,0.2164273 3.179,0.64697 1.004505,0.430547 1.9106,1.06236 2.6616,1.85646 M 3.22363,8.81635 C 4.34165,7.61742 5.69347,6.66028 7.19569,6.00398 8.69791,5.34768 10.3179,5.0057948 11.9572,5.00007 c 1.6394,-0.00573 3.2636,0.32465 4.7704,0.97045 1.5068,0.6458 2.8655,1.59406 3.9919,2.78516 M 12,19.0001 c -0.5523,0 -1,-0.4477 -1,-1 0,-0.5523 0.4477,-1 1,-1 0.5523,0 1,0.4477 1,1 0,0.5523 -0.4477,1 -1,1 z"
     stroke="#000000"
     stroke-width="2"
     stroke-linecap="round"
     stroke-linejoin="round"
     sodipodi:nodetypes="csssccsssccssscsssss"
     style="stroke:#ab8a62;stroke-opacity:1" />
</svg>
