<svg xmlns="http://www.w3.org/2000/svg" xmlns:xlink="http://www.w3.org/1999/xlink" viewBox="0,0,256,256" width="48px" height="48px" fill-rule="nonzero"><g fill="#ffffff" fill-rule="nonzero" stroke="none" stroke-width="1" stroke-linecap="butt" stroke-linejoin="miter" stroke-miterlimit="10" stroke-dasharray="" stroke-dashoffset="0" font-family="none" font-weight="none" font-size="none" text-anchor="none" style="mix-blend-mode: normal"><g transform="scale(3.55556,3.55556)"><path d="M36,12c13.255,0 24,10.745 24,24c0,13.255 -10.745,24 -24,24c-2.572,0 -5.045,-0.415 -7.368,-1.164c0.753,-1.19 2.903,-4.98 3.453,-7.036c0.285,-1.065 1.42,-5.418 1.42,-5.418c0.743,1.417 2.914,2.617 5.224,2.617c6.874,0 11.827,-6.322 11.827,-14.176c0,-7.529 -6.144,-13.164 -14.051,-13.164c-9.836,0 -15.059,6.603 -15.059,13.792c0,3.343 1.78,7.505 4.626,8.83c0.432,0.201 0.663,0.112 0.762,-0.305c0.075,-0.317 0.46,-1.865 0.633,-2.585c0.055,-0.23 0.028,-0.428 -0.158,-0.654c-0.942,-1.142 -1.696,-3.242 -1.696,-5.201c0,-5.027 3.807,-9.891 10.292,-9.891c5.599,0 9.52,3.815 9.52,9.273c0,6.166 -3.114,10.437 -7.165,10.437c-2.237,0 -3.912,-1.85 -3.375,-4.119c0.643,-2.709 1.888,-5.633 1.888,-7.589c0,-1.751 -0.939,-3.211 -2.884,-3.211c-2.287,0 -4.124,2.366 -4.124,5.535c0,2.019 0.682,3.384 0.682,3.384c0,0 -2.258,9.55 -2.673,11.329c-0.392,1.684 -0.16,6.403 -0.039,7.822c-9.177,-3.37 -15.735,-12.161 -15.735,-22.506c0,-13.255 10.745,-24 24,-24z"></path></g></g></svg>