<?xml version="1.0" encoding="UTF-8" standalone="no"?>
<svg
   viewBox="0 0 50 50"
   width="50px"
   height="50px"
   version="1.1"
   id="svg1"
   sodipodi:docname="yt.svg"
   inkscape:version="1.3 (0e150ed6c4, 2023-07-21)"
   xmlns:inkscape="http://www.inkscape.org/namespaces/inkscape"
   xmlns:sodipodi="http://sodipodi.sourceforge.net/DTD/sodipodi-0.dtd"
   xmlns="http://www.w3.org/2000/svg"
   xmlns:svg="http://www.w3.org/2000/svg">
  <defs
     id="defs1" />
  <sodipodi:namedview
     id="namedview1"
     pagecolor="#505050"
     bordercolor="#eeeeee"
     borderopacity="1"
     inkscape:showpageshadow="0"
     inkscape:pageopacity="0"
     inkscape:pagecheckerboard="0"
     inkscape:deskcolor="#505050"
     inkscape:zoom="16.34"
     inkscape:cx="25"
     inkscape:cy="25"
     inkscape:window-width="1920"
     inkscape:window-height="1057"
     inkscape:window-x="-8"
     inkscape:window-y="-8"
     inkscape:window-maximized="1"
     inkscape:current-layer="svg1" />
  <path
     d="m 44.898438,14.5 c -0.419709,-2.195259 -2.292709,-3.819504 -4.5,-4.300781 C 37.105596,9.4812483 31,9 24.398438,9 17.800781,9 11.597358,9.480434 8.300781,10.199219 6.0972128,10.679685 4.1849607,12.196795 3.800781,14.5 3.3841655,16.997661 3,20.5 3,25 c 0,4.5 0.4176649,7.996231 0.898438,10.5 0.4216003,2.195609 2.2929882,3.836386 4.5,4.300781 C 11.891115,40.535704 17.898438,41 24.5,41 c 6.601563,0 12.608886,-0.464296 16.101563,-1.199219 2.207011,-0.464395 4.11571,-1.996916 4.5,-4.300781 0.416514,-2.497052 1.050212,-6.100676 1,-10.5 -0.05141,-4.504289 -0.724359,-7.995847 -1.203125,-10.5 z M 19,32 V 18 l 12.199219,7 z"
     id="path1"
     style="fill:#ffffff"
     sodipodi:nodetypes="ssssssssssssscccc" />
</svg>
